/* XPM */
static char * sun_xpm[] = {
"100 100 11 1",
" 	c None",
".	c #4C4942",
"+	c #777336",
"@	c #777672",
"#	c #A29D30",
"$	c #ADADA9",
"%	c #F6ED2E",
"&	c #F5EF77",
"*	c #F2EFA8",
"=	c #F7F5D2",
"-	c #FCFDFA",
" --------------------------------------------$.$----------------------------------------------------",
"----------------------------------------------.$*=--------------------------------------------------",
"----------------------------------------------.$%&--------------------------------------------------",
"----------------------------------------------.$%&--------------------------------------------------",
"----------------------------------------------.$%&--------------------$-----------------------------",
"----------------------------------------------.$%&-------------------$.$==--------------------------",
"----------------------------------------------.$%&-------------------@@=&&--------------------------",
"-------------------------$@-------------------.$%&------------------@.$&%*--------------------------",
"-------------------------$.$&=----------------.$%&-----------------@.$*%&---------------------------",
"--------------------------@+%*----------------.$%&----------------$.$*%&=---------------------------",
"--------------------------$.#%*---------------.$%&---------------$.@=%%=----------------------------",
"---------------------------$.#&---------------.$%&--------------$@@-&%*-----------------------------",
"----------------------------@+%*--------------.$%*--------------@.$&%*------------------------------",
"----------------------------$.#%=-------------@-%&-------------@.$*%&-------------------------------",
"-----------------------------@+%&---------------&*------------$.$*%&--------------------------------",
"------------------------------.+%*---------------------------$.@=&&=--------------------------------",
"------------------------------$@&&---------------------------@@-&%*---------------------------------",
"--------------------------------*%*--------$$@@....@@$$------$$*%*--------------------$-------------",
"---------------------------------*=-----$@....++++++...@$$-----**-------------------$@@-=-----------",
"--------------------------------------$@..+**&&&&&&&&#++..@$-----------------------$..$*&=----------",
"------------------------------------$@.+#&&&&&&&&&&&&&&&&#+..$--------------------$.@=&%&=----------",
"-----------------------------------@.@#&&&*&&&&&&&&&&&&&&&&#+..$-----------------@.@*&%*------------",
"---------------------------------$@.+&&&&&&******&&&&&&&&&&&&#+.@$-------------$@.$*%%*-------------",
"-----$.@$$----------------------$..#&&&&***********&&&&&&&&&&%%#+.$-----------$.@$&%&*--------------",
"------@@###+$$-----------------$.@*&&&**************&&&&&&&&&%%%&+.@$--------@.@=&%&=---------------",
"--------&%%%%#+$$$------------$.+&&&&&***************&&&&&&&&&%%%%#..$-------@$*%%*-----------------",
"---------=*&&%%%##+=---------$.+&&&&******************&&&&&&&&%%%%%#+.$--------*%*------------------",
"-------------=*&%%%%&=------$.+&&&&&*******************&&&&&&&&%%%%%%+.$-------==-------------------",
"-----------------=*&&*------@+&&&&&**********===*******&&&&&&&&%%%%%%%+.$---------------------------",
"--------------------=------@.#&&&&&*******===@...@=*****&&&&&&&%%%%%%%%+.$--------------------------",
"--------------------------$.#&&&&&&******====$$$@..******&&&&&&&%%%%%%%%+.$-------------------------",
"--------------------------@+&&&&&&*******=========@@*****&&&&&&&%%%%%%%%%+@-------------------------",
"-------------------------$.#&&&&&&******==========$.$****&&&&&&&%%%%%%%%%#.@------------------------",
"-------------------------.+&&&&&&*******=====-=====$=****&+...+&%%%%%%%%%%#.$-----------------------",
"------------------------$.&&&&&&#.+****====----=====*****&#+++.+&%%%%%%%%%%+@-----------------------",
"------------------------@+%&&&&&+.+****====-----===*******&&&&#.#%%%%%%%%%%%.$----------------------",
"-----------------------$.#%&&&&&#.+****====-----====******&&&&&++%%%%%%%%%%%#.$---------------------",
"-----------------------@+%%&&&&&#.@****=====---=====******&&&&&++%%%%%%%%%%%%.@-----$$$$$@@@@....@-=",
"-----------------------.#%%&&&&&*.@****======--=====******&&&&&&&%%%%%%%%%%%%#.----$...++++++#####%&",
"----------------------$.&%%&&&&&*..*****===========******&&&&&&&%%%%%%%%%%%%%%.$----$$&%%%%%%%%%%&&&",
"----------------------@+%%%&&&&&*..*****===========******&&&&&&&%%%%%%%%%%%%%%#@------******====----",
"----@@@@@@@@@@@-------@#%%%%&&&&&..******=========*******&&&&&&%%%%%%%%%%%%%%%#.$-------------------",
"----@@+++++++++***----.#%%%%&&&&&+.*******======********&&&&&&&%%%%%%%%%%%%%%%%+@-------------------",
"-----=&%%%%%%%%%%&---$.%%%%%&&&&&+.+********************&&&&&&&%%%%%%%%%%%%%%%%#.-------------------",
"------============---$.%%%%%&&&&&#.@*******************&&&&&&&&%%%%%%%%%%%%%%%%%.$------------------",
"---------------------$+%%%%%&&&&&&..******************&&&&&&&&%%%%%%%%%%%%%%%%%%+$------------------",
"---------------------@+%%%%%%&&&&&+.+*****************&&&&&&&&%%%%%%%%%%%%%%%%%%+@------------------",
"---------------------@+%%%%%%&&&&&+.+*&*************&&&&&&&&&%%%%%%%%%%%%%%%%%%%#.------------------",
"---------------------@#%%%%%%%&&&&*..*&************&&&&&&&&&&%%%%%%%%%%#%%%%%%%%#.------------------",
"---------------------@#%%%%%%%%&&&&+.+&&&********&&&&&&&&&&&%%%%%%%%%%#.#%%%%%%%%.$-----------------",
"---------------------@#%%%%%%%%&&&&#..&&&&*&&&&&&&&&&&&&&&&%%%%%%%%%%#..#%%%%%%%%.$-----------------",
"---------------------@+%%%%%%%%%&&&&+.+&&&&&&&&&&&&&&&&&&&%%%%%%%%%%%+.+%%%%%%%%%+$-----------------",
"---------------------@+%%%%%%%%%%&&&#..#&&&&&&&&&&&&&&&&&&%%%%%%%%%%#..%%%%%%%%%%+@-----------------",
"---------------------$+%%%%%%%%%%%&&&+.+&&&&&&&&&&&&&&&&&%%%%%%%%%%#..#%%%%%%%%%%+@-----------------",
"---------------------$.%%%%%%%%%%%&&&#..+&&&&&&&&&&&&&&&%%%%%%%%%%%+.+%%%%%%%%%%%+@-----------------",
"---------------------$.#%%%%%%%%%%%%&&#..#&&&&&&&&&&&&%%%%%%%%%%%%+.+%%%%%%%%%%%%+@-----------------",
"----------------------.#%%%%%%%%%%%%%&&+..#&&&&&&&&&%%%%%%%%%%%%%+..#%%%%%%%%%%%%+@-----$-----------",
"-----------$----------@+%%%%%%%%%%%%%%&&+..#&&&&&&%%%%%%%%%%%%%%+..#%%%%%%%%%%%%%+@----$..*=--------",
"----------@.$=--------$+%%%%%%%%%%%%%%%%&+..#&&%%%%%%%%%%%%%%%#+..#%%%%%%%%%%%%%%+@-----$$&%&*------",
"--------$@.$*%*--------.#%%%%%%%%%%%%%%%%&+..+#&%%%%%%%%%%%%#+..+#%%%%%%%%%%%%%%%+$-------*&%%&*=---",
"-------$..$*%&=--------@+%%%%%%%%%%%%%%%%%%#...+#&%%%%%%%%#+...+%%%%%%%%%%%%%%%%%+$---------=&%%%*=-",
"------$.@$&%&=---------$.#%%%%%%%%%%%%%%%%%%#+....+++#+++....+#%%%%%%%%%%%%%%%%%%.$-----------=*&%%&",
"-----@.@=&%&------------@+%%%%%%%%%%%%%%%%%%%%#+...........+#%%%%%%%%%%%%%%%%%%%%.$--------------*&%",
"----@.$*%%*-------------$.#%%%%%%%%%%%%%%%%%%%%%%##+++++##%%%%%%%%%%%%%%%%%%%%%%#.-----------------=",
"--$@.$*%%*---------------@+%%%%%%%%%%%%%%%%%%%%%%%%%%%%%%%%%%%%%%%%%%%%%%%%%%%%%+@------------------",
"-$.@$&%&=----------------$.#%%%%%%%%%%%%%%%%%%%%%%%%%%%%%%%%%%%%%%%%%%%%%%%%%%%%+$------------------",
"$.@=&%&=------------------@+%%%%%%%%%%%%%%%%%%%%%%%%%%%%%%%%%%%%%%%%%%%%%%%%%%%#.$------------------",
"$$=&%*---------------------@+%%%%%%%%%%%%%%%%%%%%%%%%%%%%%%%%%%%%%%%%%%%%%%%%%%+@-------------------",
"--*&*----------------------$.#%%%%%%%%%%%%%%%%%%%%%%%%%%%%%%%%%%%%%%%%%%%%%%%%#.$-------------------",
"---=------------------------$.#%%%%%%%%%%%%%%%%%%%%%%%%%%%%%%%%%%%%%%%%%%%%%%%+@--------------------",
"-----------------------------$.#%%%%%%%%%%%%%%%%%%%%%%%%%%%%%%%%%%%%%%%%%%%%%#.$--------------------",
"------------------------------@.#%%%%%%%%%%%%%%%%%%%%%%%%%%%%%%%%%%%%%%%%%%%%+@---------------------",
"-------------------------------@.#%%%%%%%%%%%%%%%%%%%%%%%%%%%%%%%%%%%%%%%%%%+.$---------------------",
"--------------------------------$.+%%%%%%%%%%%%%%%%%%%%%%%%%%%%%%%%%%%%%%%%+.$----------------------",
"---------------------$@----------$.+#%%%%%%%%%%%%%%%%%%%%%%%%%%%%%%%%%%%%%+.$-----------------------",
"---------------------@@=*=--------$@.+%%%%%%%%%%%%%%%%%%%%%%%%%%%%%%%%%%#+.$------------------------",
"--------------------@.$&%*----------$..#%%%%%%%%%%%%%%%%%%%%%%%%%%%%%%%#.@$-------------------------",
"-------------------$.$*%&------------$@..##%%%%%%%%%%%%%%%%%%%%%%%%%%#+.@-----@$--------------------",
"------------------$.@=%&=--------------$@..+#%%%%%%%%%%%%%%%%%%%%%#+..@$------@.&*------------------",
"------------------@@-&%=------------------$@..++##%%%%%%%%%%%###+...@$---------@#%*-----------------",
"-----------------@.$*%*---------------------$$@....+++++++++....@$$-------------@#%*----------------",
"----------------$.$*%&--------------------------$$$@@@...@@@$$$-----------------$@#%*---------------",
"---------------$.@=%&=-----------------------------------------------------------$+#%=--------------",
"---------------@@-&%*---------------$---------------------------------------------$+%&=-------------",
"---------------@$*%*---------------$.-*--------------------------------------------$+%&=------------",
"-----------------&&----------------@@=%*--------------------------------------------$+%&=-----------",
"-----------------==----------------.$*%=----------------------------$----------------@+%&-----------",
"----------------------------------$.$&&----------------------------$@-=---------------@#%&----------",
"----------------------------------$@=%&----------------------------$.=&=---------------$*%*---------",
"----------------------------------@@*%*------------$$--------------$.=%*----------------=*=---------",
"----------------------------------.$*%=------------@$=*-------------.$%*----------------------------",
"---------------------------------$.-&&-------------.$&%-------------.$%*----------------------------",
"---------------------------------@@=%*-------------.$&&-------------@$&&----------------------------",
"---------------------------------@$*%=-------------.$&&-------------@$&&----------------------------",
"---------------------------------$-&%=-------------.$&&-------------@@&&----------------------------",
"-----------------------------------=*-------------$.=%*-------------@@*%----------------------------",
"--------------------------------------------------$.-%*-------------$@*%=---------------------------",
"--------------------------------------------------$.=%*-------------$.*%=---------------------------",
"--------------------------------------------------$@=%*-------------$@=%*---------------------------",
"----------------------------------------------------=%=---------------=%*---------------------------"};
